<svg width="3252" height="644" xmlns="http://www.w3.org/2000/svg" xmlns:xlink="http://www.w3.org/1999/xlink" overflow="hidden"><defs><clipPath id="clip0"><rect x="1323" y="1259" width="3252" height="644"/></clipPath></defs><g clip-path="url(#clip0)" transform="translate(-1323 -1259)"><path d="M3463.25 1474.01C3429.15 1474.01 3412.09 1482.9 3412.09 1500.68 3412.09 1506.94 3414.4 1511.74 3419.02 1515.09 3423.64 1518.44 3430.13 1520.12 3438.5 1520.12 3446.29 1520.12 3453.78 1518.37 3461 1514.89 3468.21 1511.41 3473.73 1506.92 3477.55 1501.42L3477.55 1474.01ZM3688.5 1418.19C3678.89 1418.19 3671.11 1422.46 3665.19 1431 3659.27 1439.54 3656.3 1452.63 3656.3 1470.27 3656.3 1486.97 3659.09 1499.46 3664.67 1507.72 3670.25 1515.98 3677.84 1520.12 3687.45 1520.12 3700.37 1520.12 3712.07 1512.72 3722.55 1497.94L3722.55 1433.58C3712.85 1423.32 3701.5 1418.19 3688.5 1418.19ZM3301.3 1418.19C3288.53 1418.19 3276.92 1425.56 3266.47 1440.31L3266.47 1504.86C3276.01 1515.03 3287.27 1520.12 3300.25 1520.12 3310.01 1520.12 3317.84 1515.84 3323.74 1507.28 3329.63 1498.72 3332.58 1485.64 3332.58 1468.03 3332.58 1451.42 3329.8 1438.96 3324.23 1430.65 3318.66 1422.34 3311.02 1418.19 3301.3 1418.19ZM3142.37 1418.19C3131.44 1418.19 3122.53 1422.39 3115.64 1430.8 3108.75 1439.2 3105.3 1452.01 3105.3 1469.22 3105.3 1486.36 3108.74 1499.14 3115.62 1507.53 3122.5 1515.92 3131.42 1520.12 3142.37 1520.12 3153.37 1520.12 3162.33 1515.9 3169.23 1507.48 3176.13 1499.06 3179.58 1486.3 3179.58 1469.22 3179.58 1452.07 3176.12 1439.28 3169.21 1430.84 3162.3 1422.4 3153.35 1418.19 3142.37 1418.19ZM2989.37 1418.19C2980.21 1418.19 2972.33 1421.26 2965.73 1427.42 2959.13 1433.57 2954.92 1442.09 2953.09 1452.97L3026.05 1452.97C3024.13 1442.23 3019.89 1433.75 3013.34 1427.52 3006.79 1421.3 2998.8 1418.19 2989.37 1418.19ZM2549.37 1418.19C2538.44 1418.19 2529.53 1422.39 2522.64 1430.8 2515.75 1439.2 2512.3 1452.01 2512.3 1469.22 2512.3 1486.36 2515.74 1499.14 2522.62 1507.53 2529.5 1515.92 2538.42 1520.12 2549.37 1520.12 2560.37 1520.12 2569.33 1515.9 2576.23 1507.48 2583.13 1499.06 2586.58 1486.3 2586.58 1469.22 2586.58 1452.07 2583.12 1439.28 2576.21 1430.84 2569.3 1422.4 2560.35 1418.19 2549.37 1418.19ZM2259.37 1418.19C2250.21 1418.19 2242.33 1421.26 2235.73 1427.42 2229.13 1433.57 2224.92 1442.09 2223.09 1452.97L2296.05 1452.97C2294.13 1442.23 2289.89 1433.75 2283.34 1427.52 2276.79 1421.3 2268.8 1418.19 2259.37 1418.19ZM2107.37 1418.19C2098.21 1418.19 2090.33 1421.26 2083.73 1427.42 2077.13 1433.57 2072.92 1442.09 2071.09 1452.97L2144.05 1452.97C2142.13 1442.23 2137.89 1433.75 2131.34 1427.52 2124.79 1421.3 2116.8 1418.19 2107.37 1418.19ZM3772.33 1396.62 3803.89 1396.62 3838.91 1505.9 3873.93 1396.62 3905.54 1396.62 3852.53 1539.96C3847.35 1553.52 3842.96 1563.97 3839.36 1571.32 3835.75 1578.67 3830.86 1585 3824.7 1590.32 3818.54 1595.63 3810.93 1598.29 3801.87 1598.29 3795.37 1598.29 3789.12 1597.47 3783.13 1595.82L3783.13 1568.17C3788.99 1569.4 3793.83 1570.01 3797.66 1570.01 3808.66 1570.01 3817.82 1559.68 3825.13 1539.02ZM3605.98 1393.46C3609.63 1393.46 3614.34 1393.97 3620.13 1394.97L3620.13 1424.64C3614.39 1423.59 3608.4 1423.06 3602.16 1423.06 3590.54 1423.06 3580.64 1429.05 3572.47 1441.03L3572.47 1541.68 3542.08 1541.68 3542.08 1396.62 3572.47 1396.62 3572.47 1416.11C3580.09 1401.01 3591.26 1393.46 3605.98 1393.46ZM3448.11 1393.46C3466.63 1393.46 3481.21 1397.24 3491.85 1404.8 3502.49 1412.36 3507.81 1426.99 3507.81 1448.68L3507.81 1541.68 3477.55 1541.68 3477.55 1527.33C3467.45 1539.09 3452.07 1544.97 3431.39 1544.97 3416.82 1544.97 3404.78 1540.99 3395.29 1533.03 3385.79 1525.08 3381.05 1514.73 3381.05 1502 3381.05 1467.56 3410.07 1450.34 3468.12 1450.34L3477.55 1450.34C3477.55 1442.42 3477.07 1436.41 3476.12 1432.31 3475.16 1428.21 3472.53 1424.83 3468.23 1422.18 3463.93 1419.52 3456.78 1418.19 3446.79 1418.19 3426.45 1418.19 3415.93 1426.09 3415.23 1441.88L3385.13 1441.88C3387.08 1409.6 3408.07 1393.46 3448.11 1393.46ZM3303.54 1393.46C3322.72 1393.46 3337.55 1400.24 3348.04 1413.81 3358.52 1427.37 3363.76 1445.44 3363.76 1468.03 3363.76 1491.56 3357.92 1510.26 3346.23 1524.15 3334.55 1538.03 3319.75 1544.97 3301.83 1544.97 3286.02 1544.97 3274.23 1540.28 3266.47 1530.88L3266.47 1595.4 3236.08 1595.4 3236.08 1396.62 3266.47 1396.62 3266.47 1413.34C3274.78 1400.09 3287.14 1393.46 3303.54 1393.46ZM3142.37 1393.46C3163.1 1393.46 3179.68 1400.11 3192.11 1413.42 3204.54 1426.72 3210.76 1445.32 3210.76 1469.22 3210.76 1493.05 3204.55 1511.64 3192.13 1524.97 3179.71 1538.3 3163.13 1544.97 3142.37 1544.97 3121.74 1544.97 3105.23 1538.32 3092.84 1525.01 3080.45 1511.71 3074.26 1493.11 3074.26 1469.22 3074.26 1445.26 3080.46 1426.65 3092.86 1413.38 3105.27 1400.1 3121.77 1393.46 3142.37 1393.46ZM2989.37 1393.46C3010.1 1393.46 3026.68 1400.11 3039.11 1413.42 3051.54 1426.72 3057.76 1445.32 3057.76 1469.22L3057.76 1477.83 2952.57 1477.83C2953.55 1491.41 2957.71 1501.86 2965.06 1509.16 2972.4 1516.46 2981.43 1520.12 2992.14 1520.12 3000.29 1520.12 3007.55 1518.09 3013.92 1514.04 3020.3 1509.99 3023.67 1503.5 3024.06 1494.57L3055.12 1494.57C3053.07 1511.75 3046.2 1524.45 3034.53 1532.66 3022.86 1540.87 3008.73 1544.97 2992.14 1544.97 2970.83 1544.97 2953.69 1538.28 2940.71 1524.9 2927.74 1511.51 2921.26 1492.95 2921.26 1469.22 2921.26 1445.7 2927.55 1427.2 2940.13 1413.71 2952.71 1400.21 2969.12 1393.46 2989.37 1393.46ZM2549.37 1393.46C2570.1 1393.46 2586.68 1400.11 2599.11 1413.42 2611.54 1426.72 2617.76 1445.32 2617.76 1469.22 2617.76 1493.05 2611.55 1511.64 2599.13 1524.97 2586.71 1538.3 2570.13 1544.97 2549.37 1544.97 2528.74 1544.97 2512.23 1538.32 2499.84 1525.01 2487.45 1511.71 2481.26 1493.11 2481.26 1469.22 2481.26 1445.26 2487.46 1426.65 2499.86 1413.38 2512.27 1400.1 2528.77 1393.46 2549.37 1393.46ZM2259.37 1393.46C2280.1 1393.46 2296.68 1400.11 2309.11 1413.42 2321.54 1426.72 2327.76 1445.32 2327.76 1469.22L2327.76 1477.83 2222.57 1477.83C2223.55 1491.41 2227.71 1501.86 2235.06 1509.16 2242.4 1516.46 2251.43 1520.12 2262.14 1520.12 2270.29 1520.12 2277.55 1518.09 2283.92 1514.04 2290.3 1509.99 2293.68 1503.5 2294.06 1494.57L2325.12 1494.57C2323.07 1511.75 2316.2 1524.45 2304.53 1532.66 2292.86 1540.87 2278.73 1544.97 2262.14 1544.97 2240.83 1544.97 2223.69 1538.28 2210.71 1524.9 2197.74 1511.51 2191.26 1492.95 2191.26 1469.22 2191.26 1445.7 2197.55 1427.2 2210.13 1413.71 2222.71 1400.21 2239.12 1393.46 2259.37 1393.46ZM2107.37 1393.46C2128.1 1393.46 2144.68 1400.11 2157.11 1413.42 2169.54 1426.72 2175.76 1445.32 2175.76 1469.22L2175.76 1477.83 2070.57 1477.83C2071.55 1491.41 2075.71 1501.86 2083.06 1509.16 2090.4 1516.46 2099.43 1520.12 2110.14 1520.12 2118.29 1520.12 2125.55 1518.09 2131.92 1514.04 2138.3 1509.99 2141.68 1503.5 2142.06 1494.57L2173.12 1494.57C2171.07 1511.75 2164.2 1524.45 2152.53 1532.66 2140.86 1540.87 2126.73 1544.97 2110.14 1544.97 2088.83 1544.97 2071.69 1538.28 2058.72 1524.9 2045.74 1511.51 2039.26 1492.95 2039.26 1469.22 2039.26 1445.7 2045.55 1427.2 2058.13 1413.71 2070.71 1400.21 2087.12 1393.46 2107.37 1393.46ZM3722.55 1343.3 3752.81 1343.3 3752.81 1541.68 3722.55 1541.68 3722.55 1524.96C3714.19 1538.3 3701.79 1544.97 3685.34 1544.97 3666.18 1544.97 3651.37 1538.19 3640.93 1524.63 3630.48 1511.07 3625.26 1492.95 3625.26 1470.27 3625.26 1446.8 3631.09 1428.13 3642.76 1414.26 3654.43 1400.4 3669.15 1393.46 3686.92 1393.46 3702.72 1393.46 3714.59 1398.12 3722.55 1407.42ZM2862.46 1343.3 2893.51 1343.3 2893.51 1477.25C2893.51 1501.52 2888.68 1518.87 2879.03 1529.31 2869.38 1539.75 2855.23 1544.97 2836.58 1544.97 2819.79 1544.97 2806.51 1539.84 2796.71 1529.59 2786.92 1519.33 2782.02 1505.83 2782.02 1489.1L2782.02 1481.28 2813.2 1481.28C2813.2 1504.8 2820.99 1516.56 2836.58 1516.56 2845.01 1516.56 2851.43 1514.24 2855.84 1509.59 2860.25 1504.94 2862.46 1494.6 2862.46 1478.57ZM2353.08 1343.3 2383.47 1343.3 2383.47 1541.68 2353.08 1541.68ZM1895.08 1343.3 1925.47 1343.3 1925.47 1414.4C1935.16 1400.44 1948.14 1393.46 1964.38 1393.46 1997.77 1393.46 2014.46 1411.52 2014.46 1447.63L2014.46 1541.68 1984.08 1541.68 1984.08 1448.68C1984.08 1437.94 1982.26 1430.34 1978.64 1425.9 1975.02 1421.46 1968.99 1419.24 1960.56 1419.24 1948.81 1419.24 1937.11 1426.12 1925.47 1439.87L1925.47 1541.68 1895.08 1541.68ZM1620.07 1343.3 1651.84 1343.3 1688.4 1500.5 1729.58 1343.3 1764.45 1343.3 1805.63 1500.5 1842.19 1343.3 1874.14 1343.3 1820.02 1541.68 1791.31 1541.68 1747.08 1373.95 1702.71 1541.68 1674.01 1541.68ZM2689.21 1340.01C2697.37 1340.01 2704.5 1340.74 2710.59 1342.2L2710.59 1368.55C2703.62 1367.68 2697.67 1367.24 2692.76 1367.24 2687.61 1367.24 2683.8 1368.64 2681.35 1371.46 2678.9 1374.28 2677.68 1379.52 2677.68 1387.2L2677.68 1396.62 2704.14 1396.62 2704.14 1421.48 2677.68 1421.48 2677.68 1541.68 2647.42 1541.68 2647.42 1421.48 2626.88 1421.48 2626.88 1396.62 2647.42 1396.62 2647.42 1386.93C2647.42 1355.65 2661.35 1340.01 2689.21 1340.01Z" stroke="#000000" stroke-width="14" stroke-linejoin="round" stroke-miterlimit="10" fill-rule="evenodd"/><text fill="#000000" fill-opacity="0" font-family="Arial,Arial_MSFontService,sans-serif" font-size="258.278" x="1620.07" y="1566.01">Wheel of Jeopardy</text><path d="M4211.56 1341.47 4231.03 1341.47 4231.03 1541.68 4205.78 1541.68 4205.78 1386.86C4195.58 1393.66 4179.78 1397.06 4158.38 1397.06L4158.38 1377.19C4189.27 1377.19 4206.99 1365.28 4211.56 1341.47ZM4051.84 1341.47C4071.45 1341.47 4086.58 1346.73 4097.23 1357.25 4107.88 1367.77 4113.21 1380.95 4113.21 1396.79 4113.21 1411.12 4109.27 1423.76 4101.39 1434.73 4093.51 1445.69 4077.87 1460.93 4054.46 1480.45 4031.05 1499.96 4019.12 1512.59 4018.68 1518.32L4113.74 1518.32 4113.74 1541.68 3983.36 1541.68C3983.36 1529.68 3987.08 1518.23 3994.51 1507.31 4001.94 1496.38 4015.57 1482.93 4035.39 1466.95 4055.22 1450.98 4068.81 1438.22 4076.15 1428.69 4083.49 1419.15 4087.16 1408.34 4087.16 1396.26 4087.16 1385.43 4084.02 1376.9 4077.76 1370.68 4071.49 1364.46 4062.67 1361.35 4051.31 1361.35 4041.46 1361.35 4033.04 1364.48 4026.06 1370.74 4019.08 1377.01 4015.14 1386.23 4014.25 1398.41L3988.06 1398.41C3989.49 1381.13 3995.87 1367.32 4007.2 1356.98 4018.52 1346.64 4033.4 1341.47 4051.84 1341.47Z" stroke="#000000" stroke-linejoin="round" stroke-miterlimit="10" fill-rule="evenodd"/><text fill="#000000" fill-opacity="0" font-family="Arial,Arial_MSFontService,sans-serif" font-size="200.208" x="3983.36" y="1516.65">21</text><text font-family="Microsoft JhengHei,Microsoft JhengHei_MSFontService,sans-serif" font-weight="400" font-size="165" transform="matrix(1 0 0 1 2618.81 1766)">危険<tspan font-size="165" x="330" y="0">の</tspan><tspan font-size="165" x="495" y="0">輪</tspan></text></g></svg>