<svg width="636" height="424" xmlns="http://www.w3.org/2000/svg" xmlns:xlink="http://www.w3.org/1999/xlink" overflow="hidden"><defs><clipPath id="clip0"><rect x="1029" y="1190" width="636" height="424"/></clipPath><clipPath id="clip1"><rect x="1028" y="1190" width="636" height="424"/></clipPath><clipPath id="clip2"><rect x="1028" y="1190" width="636" height="424"/></clipPath><clipPath id="clip3"><rect x="1028" y="1190" width="636" height="424"/></clipPath><clipPath id="clip4"><rect x="1028" y="1190" width="636" height="424"/></clipPath><clipPath id="clip5"><rect x="1028" y="1190" width="636" height="424"/></clipPath><clipPath id="clip6"><rect x="1028" y="1190" width="636" height="424"/></clipPath></defs><g clip-path="url(#clip0)" transform="translate(-1029 -1190)"><g clip-path="url(#clip1)"><path d="M1346.58 1240.73C1404.32 1240.73 1457.68 1271.54 1486.55 1321.54L1346.58 1402.36Z" stroke="#000000" stroke-width="10.3125" stroke-linejoin="round" stroke-miterlimit="10" fill="#FFC000" fill-rule="evenodd"/></g><g clip-path="url(#clip2)"><path d="M1486.55 1321.54C1515.42 1371.55 1515.42 1433.16 1486.55 1483.17L1346.58 1402.36Z" stroke="#000000" stroke-width="10.3125" stroke-linejoin="round" stroke-miterlimit="10" fill="#FFE405" fill-rule="evenodd"/></g><g clip-path="url(#clip3)"><path d="M1486.55 1483.17C1457.68 1533.18 1404.32 1563.98 1346.58 1563.98L1346.58 1402.36Z" stroke="#000000" stroke-width="10.3125" stroke-linejoin="round" stroke-miterlimit="10" fill="#92D050" fill-rule="evenodd"/></g><g clip-path="url(#clip4)"><path d="M1346.58 1563.98C1288.84 1563.98 1235.48 1533.18 1206.61 1483.17L1346.58 1402.36Z" stroke="#000000" stroke-width="10.3125" stroke-linejoin="round" stroke-miterlimit="10" fill="#00B0F0" fill-rule="evenodd"/></g><g clip-path="url(#clip5)"><path d="M1206.61 1483.17C1177.74 1433.16 1177.74 1371.55 1206.61 1321.54L1346.58 1402.36Z" stroke="#000000" stroke-width="10.3125" stroke-linejoin="round" stroke-miterlimit="10" fill="#FC83FD" fill-rule="evenodd"/></g><g clip-path="url(#clip6)"><path d="M1206.61 1321.54C1235.48 1271.54 1288.84 1240.73 1346.58 1240.73L1346.58 1402.36Z" stroke="#000000" stroke-width="10.3125" stroke-linejoin="round" stroke-miterlimit="10" fill="#FF2E01" fill-rule="evenodd"/></g></g></svg>