<svg width="3911" height="2608" xmlns="http://www.w3.org/2000/svg" xmlns:xlink="http://www.w3.org/1999/xlink" overflow="hidden"><defs><clipPath id="clip0"><rect x="1009" y="656" width="3911" height="2608"/></clipPath><clipPath id="clip1"><rect x="1008" y="656" width="3911" height="2607"/></clipPath><clipPath id="clip2"><rect x="1008" y="656" width="3911" height="2607"/></clipPath><clipPath id="clip3"><rect x="1008" y="656" width="3911" height="2607"/></clipPath><clipPath id="clip4"><rect x="1008" y="656" width="3911" height="2607"/></clipPath><clipPath id="clip5"><rect x="1008" y="656" width="3911" height="2607"/></clipPath><clipPath id="clip6"><rect x="1008" y="656" width="3911" height="2607"/></clipPath></defs><g clip-path="url(#clip0)" transform="translate(-1009 -656)"><g clip-path="url(#clip1)"><path d="M2964.19 706.654C3411.95 706.654 3825.69 945.529 4049.57 1333.3L2964.19 1959.94Z" stroke="#000000" stroke-width="10.3125" stroke-linejoin="round" stroke-miterlimit="10" fill="#FFC000" fill-rule="evenodd"/></g><g clip-path="url(#clip2)"><path d="M4049.57 1333.3C4273.45 1721.07 4273.45 2198.82 4049.57 2586.58L2964.19 1959.94Z" stroke="#000000" stroke-width="10.3125" stroke-linejoin="round" stroke-miterlimit="10" fill="#FFE405" fill-rule="evenodd"/></g><g clip-path="url(#clip3)"><path d="M4049.57 2586.58C3825.69 2974.35 3411.95 3213.23 2964.19 3213.23L2964.19 1959.94Z" stroke="#000000" stroke-width="10.3125" stroke-linejoin="round" stroke-miterlimit="10" fill="#92D050" fill-rule="evenodd"/></g><g clip-path="url(#clip4)"><path d="M2964.19 3213.23C2516.44 3213.23 2102.69 2974.35 1878.82 2586.58L2964.19 1959.94Z" stroke="#000000" stroke-width="10.3125" stroke-linejoin="round" stroke-miterlimit="10" fill="#00B0F0" fill-rule="evenodd"/></g><g clip-path="url(#clip5)"><path d="M1878.81 2586.58C1654.94 2198.82 1654.94 1721.07 1878.81 1333.3L2964.19 1959.94Z" stroke="#000000" stroke-width="10.3125" stroke-linejoin="round" stroke-miterlimit="10" fill="#FC83FD" fill-rule="evenodd"/></g><g clip-path="url(#clip6)"><path d="M1878.81 1333.3C2102.69 945.529 2516.44 706.654 2964.19 706.654L2964.19 1959.94Z" stroke="#000000" stroke-width="10.3125" stroke-linejoin="round" stroke-miterlimit="10" fill="#FF2E01" fill-rule="evenodd"/></g><text font-family="VCR OSD Mono,VCR OSD Mono_MSFontService,sans-serif" font-weight="400" font-size="128" transform="matrix(0.87176 -0.489933 0.489933 0.87176 2462.64 1144)">M<tspan font-size="128" x="-0.366974" y="154.653">U</tspan><tspan font-size="128" x="-0.244019" y="308.434">S</tspan><tspan font-size="128" x="-0.120834" y="462.215">I</tspan><tspan font-size="128" x="0.00213623" y="615.997">C</tspan></text><text font-family="VCR OSD Mono,VCR OSD Mono_MSFontService,sans-serif" font-weight="400" font-size="92" transform="matrix(0.868504 0.495682 -0.495682 0.868504 3531.48 983)">G<tspan font-size="92" x="0.230408" y="110.403">E</tspan><tspan font-size="92" x="-0.0350876" y="219.938">O</tspan><tspan font-size="92" x="0.195114" y="330.342">G</tspan><tspan font-size="92" x="-0.0701752" y="439.877">R</tspan><tspan font-size="92" x="0.160034" y="550.28">A</tspan><tspan font-size="92" x="-0.105225" y="659.815">P</tspan><tspan font-size="92" x="0.124939" y="770.219">H</tspan><tspan font-size="92" x="-0.140564" y="879.754">Y</tspan></text><text font-family="VCR OSD Mono,VCR OSD Mono_MSFontService,sans-serif" font-weight="400" font-size="128" transform="matrix(-0.866025 0.5 -0.5 -0.866025 3502.53 2834)">S<tspan font-size="128" x="0.183952" y="153.681">P</tspan><tspan font-size="128" x="-0.132309" y="308.229">O</tspan><tspan font-size="128" x="0.0516357" y="461.91">R</tspan><tspan font-size="128" x="0.235596" y="615.591">T</tspan><tspan font-size="128" x="-0.0804443" y="770.139">S</tspan></text><text font-family="VCR OSD Mono,VCR OSD Mono_MSFontService,sans-serif" font-weight="400" font-size="92" transform="matrix(-0.866025 -0.5 0.5 -0.866025 2408.55 2935)">L<tspan font-size="92" x="-0.131397" y="109.772">I</tspan><tspan font-size="92" x="0.237206" y="220.411">T</tspan><tspan font-size="92" x="0.10582" y="330.183">E</tspan><tspan font-size="92" x="-0.025589" y="439.956">R</tspan><tspan font-size="92" x="-0.156967" y="549.728">A</tspan><tspan font-size="92" x="0.211639" y="660.367">T</tspan><tspan font-size="92" x="0.0802307" y="770.139">U</tspan><tspan font-size="92" x="-0.051178" y="879.911">R</tspan><tspan font-size="92" x="-0.182526" y="989.684">E</tspan></text><text font-family="VCR OSD Mono,VCR OSD Mono_MSFontService,sans-serif" font-weight="400" font-size="128" transform="matrix(-1.83697e-16 -1 1 -1.83697e-16 2130.4 1985)">F<tspan font-size="128" x="-2.82893e-14" y="154">I</tspan><tspan font-size="128" x="-5.65787e-14" y="308">L</tspan><tspan font-size="128" x="-8.4868e-14" y="462">M</tspan></text><text font-family="VCR OSD Mono,VCR OSD Mono_MSFontService,sans-serif" font-weight="400" font-size="128" transform="matrix(6.12323e-17 1 -1 6.12323e-17 4087.59 1923)">S<tspan font-size="128" x="-9.42978e-15" y="154">C</tspan><tspan font-size="128" x="-1.88596e-14" y="308">I</tspan><tspan font-size="128" x="-2.82893e-14" y="462">E</tspan><tspan font-size="128" x="-3.77191e-14" y="616">N</tspan><tspan font-size="128" x="-4.71489e-14" y="770">C</tspan><tspan font-size="128" x="-5.65787e-14" y="924">E</tspan></text></g></svg>